REM DIRINDEX 1\2\6,1\2\7,1\2\8,1\2\9,1\3\10,1\3\11,1\4\12,1\4\13,1\4\14,1\5\15,1\5\16,1\5\17
REM DIRNAME folder01,folder02,folder03,folder04,folder05,folder06,folder07,folder08,folder09,folder10,folder11,folder12,folder13,folder14,folder15,folder16,folder17
TITLE ""
FILE "1900_2_sec12_1184_1200.mp3" MP3
  TRACK 01 AUDIO
    TITLE "0:"
    INDEX 01 00:00:00
  TRACK 02 AUDIO
    TITLE "13:cjc020_4502"
    INDEX 01 00:00:19
  TRACK 03 AUDIO
    TITLE "0:"
    INDEX 01 00:01:46
  TRACK 04 AUDIO
    TITLE "14:cjc020_4503"
    INDEX 01 00:01:50
  TRACK 05 AUDIO
    TITLE "0:"
    INDEX 01 00:02:73
  TRACK 06 AUDIO
    TITLE "13:cjc020_4504"
    INDEX 01 00:03:53
  TRACK 07 AUDIO
    TITLE "0:"
    INDEX 01 00:04:58
  TRACK 08 AUDIO
    TITLE "14:cjc020_4505"
    INDEX 01 00:04:64
  TRACK 09 AUDIO
    TITLE "0:"
    INDEX 01 00:07:25
  TRACK 10 AUDIO
    TITLE "13:cjc020_4506"
    INDEX 01 00:08:07
  TRACK 11 AUDIO
    TITLE "0:"
    INDEX 01 00:09:32
  TRACK 12 AUDIO
    TITLE "14:cjc020_4507"
    INDEX 01 00:09:36
  TRACK 13 AUDIO
    TITLE "0:"
    INDEX 01 00:11:64
  TRACK 14 AUDIO
    TITLE "13:cjc020_4508"
    INDEX 01 00:12:46
  TRACK 15 AUDIO
    TITLE "0:"
    INDEX 01 00:13:35
  TRACK 16 AUDIO
    TITLE "14:cjc020_4509"
    INDEX 01 00:13:51
  TRACK 17 AUDIO
    TITLE "0:"
    INDEX 01 00:15:28
  TRACK 18 AUDIO
    TITLE "13:cjc020_4510"
    INDEX 01 00:16:10
  TRACK 19 AUDIO
    TITLE "0:"
    INDEX 01 00:17:25
  TRACK 20 AUDIO
    TITLE "14:cjc020_4511"
    INDEX 01 00:17:29
  TRACK 21 AUDIO
    TITLE "0:"
    INDEX 01 00:18:64
  TRACK 22 AUDIO
    TITLE "13:cjc020_4512"
    INDEX 01 00:19:48
  TRACK 23 AUDIO
    TITLE "0:"
    INDEX 01 00:20:67
  TRACK 24 AUDIO
    TITLE "14:cjc020_4513"
    INDEX 01 00:20:71
  TRACK 25 AUDIO
    TITLE "0:"
    INDEX 01 00:23:10
  TRACK 26 AUDIO
    TITLE "13:cjc020_4514"
    INDEX 01 00:23:71
  TRACK 27 AUDIO
    TITLE "0:"
    INDEX 01 00:24:61
  TRACK 28 AUDIO
    TITLE "14:cjc020_4515"
    INDEX 01 00:25:05
  TRACK 29 AUDIO
    TITLE "0:"
    INDEX 01 00:28:39
  TRACK 30 AUDIO
    TITLE "13:cjc020_4516"
    INDEX 01 00:29:21
  TRACK 31 AUDIO
    TITLE "0:"
    INDEX 01 00:30:22
  TRACK 32 AUDIO
    TITLE "14:cjc020_4517"
    INDEX 01 00:30:24
  TRACK 33 AUDIO
    TITLE "0:"
    INDEX 01 00:35:08
  TRACK 34 AUDIO
    TITLE "13:cjc020_4518"
    INDEX 01 00:35:63
  TRACK 35 AUDIO
    TITLE "0:"
    INDEX 01 00:37:07
  TRACK 36 AUDIO
    TITLE "14:cjc020_4519"
    INDEX 01 00:37:08
  TRACK 37 AUDIO
    TITLE "0:"
    INDEX 01 00:40:07
  TRACK 38 AUDIO
    TITLE "13:cjc020_4520"
    INDEX 01 00:40:64
  TRACK 39 AUDIO
    TITLE "0:"
    INDEX 01 00:42:14
  TRACK 40 AUDIO
    TITLE "14:cjc020_4521"
    INDEX 01 00:42:18
  TRACK 41 AUDIO
    TITLE "0:"
    INDEX 01 00:44:63
  TRACK 42 AUDIO
    TITLE "13:cjc020_4522"
    INDEX 01 00:45:47
  TRACK 43 AUDIO
    TITLE "0:"
    INDEX 01 00:46:62
  TRACK 44 AUDIO
    TITLE "14:cjc020_4523"
    INDEX 01 00:46:64
  TRACK 45 AUDIO
    TITLE "0:"
    INDEX 01 00:49:41
  TRACK 46 AUDIO
    TITLE "13:cjc020_4524"
    INDEX 01 00:50:19
  TRACK 47 AUDIO
    TITLE "0:"
    INDEX 01 00:51:22
  TRACK 48 AUDIO
    TITLE "14:cjc020_4525"
    INDEX 01 00:51:30
  TRACK 49 AUDIO
    TITLE "0:"
    INDEX 01 00:55:55
  TRACK 50 AUDIO
    TITLE "13:cjc020_4526"
    INDEX 01 00:56:35
  TRACK 51 AUDIO
    TITLE "0:"
    INDEX 01 00:57:50
  TRACK 52 AUDIO
    TITLE "14:cjc020_4527"
    INDEX 01 00:57:54
  TRACK 53 AUDIO
    TITLE "0:"
    INDEX 01 01:00:02
  TRACK 54 AUDIO
    TITLE "13:cjc020_4528"
    INDEX 01 01:00:59
  TRACK 55 AUDIO
    TITLE "0:"
    INDEX 01 01:01:70
  TRACK 56 AUDIO
    TITLE "14:cjc020_4529"
    INDEX 01 01:02:12
  TRACK 57 AUDIO
    TITLE "0:"
    INDEX 01 01:04:56
  TRACK 58 AUDIO
    TITLE "13:cjc020_4530"
    INDEX 01 01:05:38
  TRACK 59 AUDIO
    TITLE "0:"
    INDEX 01 01:06:49
  TRACK 60 AUDIO
    TITLE "14:cjc020_4531"
    INDEX 01 01:06:53
  TRACK 61 AUDIO
    TITLE "0:"
    INDEX 01 01:08:44
  TRACK 62 AUDIO
    TITLE "13:cjc020_4532"
    INDEX 01 01:09:22
  TRACK 63 AUDIO
    TITLE "0:"
    INDEX 01 01:10:47
  TRACK 64 AUDIO
    TITLE "14:cjc020_4533"
    INDEX 01 01:10:53
  TRACK 65 AUDIO
    TITLE "0:"
    INDEX 01 01:12:13
  TRACK 66 AUDIO
    TITLE "13:cjc020_4534"
    INDEX 01 01:12:64
  TRACK 67 AUDIO
    TITLE "0:"
    INDEX 01 01:14:04
  TRACK 68 AUDIO
    TITLE "14:cjc020_4535"
    INDEX 01 01:14:12
  TRACK 69 AUDIO
    TITLE "0:"
    INDEX 01 01:16:26
